<svg version="1" xmlns="http://www.w3.org/2000/svg" width="346.667" height="346.667" viewBox="0 0 260.000000 260.000000"><path d="M0 130v130h260V0H0v130zM75 27.8v26.7L50.6 92.4l-24.4 37.8 6.5 10.2c3.6 5.5 14.6 22.6 24.5 37.8L75 205.9l-.2 26.8-.3 26.8-35.2-56-35.3-56v-36.4l31.6-49.8C53 33.9 68.8 9.1 70.6 6.2 72.5 3.4 74.2 1 74.5 1c.3 0 .5 12 .5 26.8zm146.4 29.7l34.6 55v36.4l-34.1 53.8c-18.8 29.6-34.8 54.5-35.5 55.3-1.2 1.2-1.4-2.5-1.4-25.5v-27l24.4-37.9 24.4-37.8-6.5-10.2c-3.6-5.5-14.6-22.6-24.4-37.8L185 54.1V27.4c0-15.7.4-26.4.9-25.9.5.6 16.5 25.7 35.5 56zm-117 18.6c11.9 3.3 19 13.7 19 27.9 0 8.7-2.6 16-7.3 20.7l-3.8 3.8 3.8 2.5c7.9 4.9 11.5 13.9 10.7 26.8-.7 12.9-7.4 22.3-17.6 25.2-2 .5-12.1 1-22.3 1H68.3l-.7-5c-.8-6-.5-6.6 3.4-7.5l3-.7V88h-7V75h16.8c9.2 0 18.5.5 20.6 1.1zm85.7.9c4.1 1.2 4.2 1.4 5.5 20.2l.7 9.8h-9.1l-2.3-8.5c-2.7-9.9-3.7-10.5-12.4-8.6-14 3.1-22.4 16.4-23.3 37-.7 15.4 2.4 26.4 9.9 35.4 7.9 9.5 22.1 10.9 32.7 3.1 2.1-1.6 2.2-1.6 3.7 2 3.3 7.9 3.1 9-1.9 12.4-16.9 11.1-39.9 3.6-50.9-16.6-6.6-12.1-9-34.9-5.3-50.6 4.3-18.2 15.2-31.4 29.9-36.2 4.6-1.5 16.7-1.2 22.8.6z"/><path d="M87 106v17.3l7-.5c8.2-.6 11.2-2.3 14.1-8 1.7-3.3 2-5.4 1.7-10.5-.6-10.3-4.8-14.1-16.5-15.1l-6.3-.5V106zM87 152.9V170h8.3c12.6 0 17.3-3.9 18.4-15.4.3-4 0-6-1.9-9.6-3.1-6-6.8-7.9-16.7-8.7l-8.1-.6v17.2z"/></svg>